# xmcd CD database file
#
# Track frame offsets:
#	150
#	12322
#	24611
#	42881
#	55103
#	69232
#	83125
#	97878
#	110252
#	122834
#	134528
#	151913
#	167041
#	181291
#	194424
#	197199
#
# Disc length: 2856 seconds
#
# Revision: 0
# Processed by: cddbd v1.4PL0 Copyright (c) Steve Scherf et al.
# Submitted via: CDex 1.50
#
DISCID=d00b2610
DTITLE=ONLY BLUE STOMPERS - blues in the air
DYEAR=2001
DGENRE=Jazz
TTITLE0=blues in the air
TTITLE1=blackstick
TTITLE2=buddy bolden blues
TTITLE3=sweetie dear
TTITLE4=southern sunset
TTITLE5=12th street rag
TTITLE6=medley:what's new - to you
TTITLE7=coal black shine
TTITLE8=passport to paradise
TTITLE9=madame bécassin
TTITLE10=lazy river
TTITLE11=i've found a new baby
TTITLE12=i want you tonight
TTITLE13=girl's dance
TTITLE14=bonus track
TTITLE15=china boy
EXTD=YEAR: 2001
EXTT0=
EXTT1=
EXTT2=
EXTT3=
EXTT4=
EXTT5=
EXTT6=
EXTT7=
EXTT8=
EXTT9=
EXTT10=
EXTT11=
EXTT12=
EXTT13=
EXTT14=
EXTT15=
PLAYORDER=
